<svg xmlns="http://www.w3.org/2000/svg" viewBox="0 0 24 30" fill="none" x="0px" y="0px"><path fill-rule="evenodd" clip-rule="evenodd" d="M1 8C1 7.44772 1.44772 7 2 7H16C16.5523 7 17 7.44772 17 8V22C17 22.5523 16.5523 23 16 23H2C1.44772 23 1 22.5523 1 22V8ZM3 9V21H15V9H3Z" fill="black"/><path fill-rule="evenodd" clip-rule="evenodd" d="M7 2C7 1.44772 7.44772 1 8 1H22C22.5523 1 23 1.44772 23 2V16C23 16.5523 22.5523 17 22 17H19V15H21V3H9V5H7V2Z" fill="black"/><text x="0" y="39" fill="#000000" font-size="5px" font-weight="bold" font-family="'Helvetica Neue', Helvetica, Arial-Unicode, Arial, Sans-serif">Created by SuperNdre</text><text x="0" y="44" fill="#000000" font-size="5px" font-weight="bold" font-family="'Helvetica Neue', Helvetica, Arial-Unicode, Arial, Sans-serif">from the Noun Project</text></svg>